<svg xmlns="http://www.w3.org/2000/svg" viewBox="0 0 2325 451" width="800" height="800"><path d="M0 0h2325v451h-246.41c32.06-.81 63.64-7.42 91.39-24.02 22.39-13.4 40.67-33.04 50.76-57.25 8.86-20.98 11.04-44.31 7.46-66.74-2.55-15.85-8.65-31.08-18.03-44.13-8.63-12.1-19.97-22.45-32.16-30.88-14.15-9.88-30.23-17.84-45.86-25.12-11.79-5.22-23.51-10.63-35.41-15.59-14.91-6.41-30.35-13.73-43.02-23.99-9.39-7.63-17.25-17-21.38-28.5-5.34-15-4.11-32.29 2.88-46.55 5.69-11.72 15.18-21.21 26.57-27.43 13.8-7.6 29.6-10.51 45.21-10.82 18.06-.2 36.06 2.6 53 8.94 18.23 6.62 33.79 17.27 48.84 29.28.03-21.98 0-43.97.01-65.95C2173.16 5.76 2133.26-1.94 2094 .58c-25.7 1.75-51.38 8.43-73.48 21.93-18.46 11.17-33.9 27-43.74 46.27-9.21 17.89-13.18 38.2-11.85 58.25 1.23 18.84 7.54 37.29 18.11 52.94 8.82 12.93 19.82 24.31 32.63 33.33 20.05 14.27 44.11 23.73 66.65 33.39 15.72 6.77 31.04 12.15 45.79 21.18 9.04 5.53 17.18 11.95 23.38 20.64 6.9 9.76 10.96 21.58 11.99 33.46 1.51 18-5.08 36.12-16.74 49.77-10.81 12.73-25.65 21.15-41.68 25.48-17.31 4.62-35.92 4.87-53.56 2.08-24.33-3.76-48.06-13.33-69.45-25.35-7.17-3.97-14.02-8.4-20.98-12.71.02 21.75-.02 43.51.03 65.26 34.5 14.85 71.36 23.75 108.99 24.5H0v-8.15c102.98.17 206.02.02 309 .07 255.36-.02 510.73.05 766.08-.03.03-145.05.01-290.1.01-435.16-213.02-.04-426.06 0-639.09-.02-145.24.05-290.8-.07-436 .06z" fill="#fff"/><path d="M2094 .58c39.26-2.52 79.16 5.18 114.85 21.67-.01 21.98.02 43.97-.01 65.95-15.05-12.01-30.61-22.66-48.84-29.28-16.94-6.34-34.94-9.14-53-8.94-15.61.31-31.41 3.22-45.21 10.82-11.39 6.22-20.88 15.71-26.57 27.43-6.99 14.26-8.22 31.55-2.88 46.55 4.13 11.5 11.99 20.87 21.38 28.5 12.67 10.26 28.11 17.58 43.02 23.99 11.9 4.96 23.62 10.37 35.41 15.59 15.63 7.28 31.71 15.24 45.86 25.12 12.19 8.43 23.53 18.78 32.16 30.88 9.38 13.05 15.48 28.28 18.03 44.13 3.58 22.43 1.4 45.76-7.46 66.74-10.09 24.21-28.37 43.85-50.76 57.25-27.75 16.6-59.33 23.21-91.39 24.02h-8.5c-37.63-.75-74.49-9.65-108.99-24.5-.05-21.75-.01-43.51-.03-65.26 6.96 4.31 13.81 8.74 20.98 12.71 21.39 12.02 45.12 21.59 69.45 25.35 17.64 2.79 36.25 2.54 53.56-2.08 16.03-4.33 30.87-12.75 41.68-25.48 11.66-13.65 18.25-31.77 16.74-49.77-1.03-11.88-5.09-23.7-11.99-33.46-6.2-8.69-14.34-15.11-23.38-20.64-14.75-9.03-30.07-14.41-45.79-21.18-22.54-9.66-46.6-19.12-66.65-33.39-12.81-9.02-23.81-20.4-32.63-33.33-10.57-15.65-16.88-34.1-18.11-52.94-1.33-20.05 2.64-40.36 11.85-58.25 9.84-19.27 25.28-35.1 43.74-46.27 22.1-13.5 47.78-20.18 73.48-21.93" fill="#5f6062"/><path d="M0 7.77c145.2-.13 290.76-.01 436-.06 213.03.02 426.07-.02 639.09.02 0 145.06.02 290.11-.01 435.16-255.35.08-510.72.01-766.08.03-102.98-.05-206.02.1-309-.07z" fill="#b30938"/><path d="M1157.11 10.89c20.43-.01 40.87-.01 61.31 0-.01 143.08 0 286.17-.01 429.26-20.44.02-40.88.04-61.31-.01-.01-143.08-.03-286.17.01-429.25m149.96 0c80.18-.01 160.36 0 240.54-.01.01 16.42.01 32.84 0 49.27-59.55.01-119.11-.03-178.66.02-.02 43.59-.02 87.19 0 130.78 51.73.23 103.52.03 155.27.11q.015 24.915 0 49.83c-51.76.03-103.51-.02-155.27.03-.04 66.41.01 132.82-.02 199.23-20.62.02-41.25.04-61.88-.01 0-143.08-.03-286.17.02-429.25m296.13-.01c37.93 0 75.87.01 113.8 0 20.08.25 39.29.64 58.96 5.23 22.15 5.11 42.96 15.64 58.83 32.11 15.51 16.05 25.58 36.79 29.32 58.75 2.93 17.52 2.4 35.82-2.05 53.05-4.68 18.29-14.36 35.02-27.47 48.57-10.68 11.15-23.01 19.82-36.24 27.67 41.76 67.98 83.61 135.92 125.4 203.89-23.84.03-47.67.02-71.51 0-38.34-62.13-76.62-124.3-114.96-186.44-24.06 2.73-48.59 2.96-72.78 2.77-.03 61.22.01 122.44-.02 183.67-20.43.02-40.85.03-61.28-.01-.01-143.09-.02-286.17 0-429.26m668.29 20.81c12.18-3.26 25.62 2.1 31.29 13.53 4.26 8.41 3.52 18.98-1.88 26.7-5.31 7.72-14.6 11.97-23.9 11.37-9.23-.44-17.97-5.77-22.32-13.96-3.96-7.34-4.13-16.54-.35-23.99 3.4-6.82 9.82-11.76 17.16-13.65" fill="#5f6062"/><path d="M2273.49 36.72c6.62-1.73 13.97.11 18.88 4.92 6.98 6.66 8.35 17.99 3.56 26.3-3.8 6.75-11.22 10.63-18.95 9.83-9.51-.66-17.24-8.38-18.42-17.75-1.52-10.24 4.77-20.69 14.93-23.3M895.46 43.2c8.88 16 18.02 31.87 26.87 47.89-6.84.02-13.68.02-20.51 0-3.51 5.81-6.8 11.74-10.39 17.5-5.5-9.43-11.1-18.81-16.67-28.2-12.84-.02-25.68-.02-38.51 0-7.11 12.13-14.36 24.19-21.35 36.39 10.38 18.5 20.8 36.97 31.18 55.47-9 15.35-18.27 30.56-27.37 45.86-3.96-6.94-7.7-14-11.65-20.95-6.26 0-12.52.04-18.78-.01 4.76-8.91 9.77-17.7 14.51-26.62-10.48-18.6-20.77-37.3-31.26-55.88C785.15 90.79 798.9 67 812.64 43.22c27.58-.13 55.23-.06 82.82-.02" fill="#fff"/><path d="M2268.44 44.4c3.46-.68 7.04-.86 10.57-.87 2.9.08 5.98.29 8.42 2.05 2.91 1.98 3.73 6.57 1.46 9.32-.96 1.2-2.67 1.88-3.99 2.62 5.06 2.92 4.27 8.04 6.22 13.02h-6.53c-.98-2.78-1.46-5.77-2.62-8.48-1.59-2.34-5-1.77-7.46-1.92 0 3.46.01 6.92.02 10.38l-6.17.03c.07-8.71-.13-17.45.08-26.15" fill="#5f6062"/><path d="M2274.67 48.18c2.26.02 5.3-.47 7.29.79 1.75 1.19 1.98 3.1 1.11 4.94-2.15 2.34-5.57 1.79-8.43 1.96.01-2.56.01-5.12.03-7.69m-610.11 12.06c13.45-.23 26.98-.03 40.44-.09 15.82.09 33.15.06 48.48 4.29 12.2 3.29 23.35 9.85 31.53 19.55 10.59 12.3 15.42 27.95 15.93 44.01.55 16.13-3.15 32.15-12.44 45.51-9.37 13.5-23.92 22.84-39.49 27.59-17.06 5.33-34.24 5.99-51.96 5.26-10.87 15.05-21.67 30.16-32.55 45.2.03-63.57-.1-127.84.06-191.32M906.1 98c28.21-.31 56.91-.01 85.18-.15 14.6 25.26 29.31 50.5 43.71 75.87-9.45 15.62-18.82 31.28-28.22 46.93-4.39-7.53-8.59-15.16-12.95-22.71-5.98-.02-11.96.04-17.95-.05 5.18-8.93 10.29-17.9 15.41-26.87-6.85-11.83-13.68-23.67-20.56-35.48-13.7-.01-27.4-.03-41.1 0-10.27 17.68-20.51 35.38-30.85 53.02-17.69-.13-35.39-.22-53.07-.43 3.16-5.18 6.53-10.24 9.79-15.37-3.81-7.02-7.74-13.98-11.55-21.01 10.27-.05 20.55.02 30.83-.03 10.47-17.79 20.74-36.06 31.33-53.72m-187.19.75c17.97-.13 35.97-.03 53.96-.05-3.11 5.34-6.35 10.6-9.44 15.95 3.79 6.9 7.41 13.9 11.12 20.85-11.55.06-23.11.01-34.66.03-6.72 11.7-13.49 23.36-20.12 35.1 6.57 11.25 13.09 22.54 19.73 33.75 20.68-.05 41.37-.01 62.06-.02 9.26 15.98 18.62 31.91 27.8 47.94-6.71.02-13.42 0-20.12.04-3.53 6.13-7.18 12.2-10.63 18.38-5.59-9.22-10.88-18.61-16.42-27.86-20.86-.03-41.72.05-62.58-.04-12.64-22.49-25.35-44.94-38.04-67.4-1.11-2.03-2.49-4.03-3.29-6.2 13.39-23.44 27.04-47.14 40.63-70.47" fill="#fff"/><path d="M913.34 179.11c5.03 8.82 9.99 17.67 14.97 26.51 20.7.04 41.39.05 62.09 0 15.41 26.62 30.62 53.37 45.93 80.05-12.87 21.95-25.72 43.92-38.6 65.86-18.71 0-37.43.01-56.15 0 2.71-5.14 5.41-10.28 8.14-15.41-3.96-7.42-8.05-14.77-11.93-22.23 13.11-.03 26.22-.01 39.33-.01 5.61-9.83 11.19-19.69 16.72-29.56-7.85-13.53-15.68-27.07-23.57-40.57-20.71.02-41.41.01-62.11 0-8.79-15.7-17.74-31.32-26.47-47.06 6.98-.05 13.95.01 20.92-.03 3.02-4.98 6.09-9.92 9.11-14.89.54-.89 1.08-1.77 1.62-2.66m-208.18 52.63c3.31 5.83 6.56 11.7 9.86 17.54 7.84.07 15.68-.01 23.53.05-5.5 9.86-11.17 19.63-16.64 29.5 6.56 11.53 13.11 23.07 19.71 34.58 13.24-.01 26.48 0 39.72 0 10.36-17.95 20.57-35.98 30.95-53.91 19.56.03 39.12-.02 58.68.02-3.95 6.76-8.07 13.41-11.97 20.2 2.85 5.66 5.67 11.33 8.48 17-10.66.05-21.33.02-32 0-10.25 18.08-20.34 36.26-30.5 54.39-28.26.03-56.52 0-84.79.01-14.2-24.06-28.3-48.2-42.46-72.29 9.09-15.73 18.27-31.41 27.43-47.09" fill="#fff"/><path d="M895.35 233.04c3.51 5.78 6.83 11.67 10.28 17.48 7.28.03 14.57 0 21.86.02-5.78 10.46-11.72 20.82-17.52 31.27 10.39 17.81 20.85 35.59 31.22 53.42-13.91 24.13-27.97 48.19-41.94 72.29-27.58.06-55.15.02-82.73.02-9.43-16.1-18.84-32.21-28.26-48.31 6.73-.05 13.45-.39 20.18-.51 3.23-5.69 6.48-11.37 9.78-17.03 5.39 8.93 10.56 17.98 15.93 26.91 14.25 0 28.5.01 42.75 0 6.86-11.67 13.7-23.34 20.54-35.02-10.05-17.89-20.31-35.66-30.37-53.54 9.43-15.66 18.82-31.36 28.28-47" fill="#fff"/></svg>