<svg height="800" width="800" xmlns="http://www.w3.org/2000/svg" viewBox="0 0 18 18"><defs><linearGradient id="b" x1="214.573" y1="491.263" x2="222.068" y2="507.151" gradientTransform="translate(-206 -490.699)" gradientUnits="userSpaceOnUse"><stop offset="0" stop-color="#e6ad10"/><stop offset="1" stop-color="#c87e0e"/></linearGradient><linearGradient id="c" x1="211.689" y1="495.678" x2="217.993" y2="507.903" gradientTransform="translate(-206 -490.699)" gradientUnits="userSpaceOnUse"><stop offset="0" stop-color="#f6d751"/><stop offset="1" stop-color="#e6ad10"/></linearGradient><linearGradient id="d" x1="209.39" y1="499.368" x2="212.873" y2="507.624" gradientTransform="translate(-206 -490.699)" gradientUnits="userSpaceOnUse"><stop offset="0" stop-color="#f9e589"/><stop offset="1" stop-color="#f6d751"/></linearGradient><clipPath id="a"><path d="M9.71 1.185a.71.71 0 0 1 .711-.711h4.263a.71.71 0 0 1 .71.711v15.63a.71.71 0 0 1-.71.711H3.316a.71.71 0 0 1-.71-.711V9.71a.71.71 0 0 1 .71-.71h2.842V5.448a.71.71 0 0 1 .711-.711H9.71Z" fill="none"/></clipPath></defs><g clip-path="url(#a)"><path d="M15.394.474v17.052H9.71V.474Z" fill="url(#b)"/><path d="M11.842 5.448v12.078H6.158V4.737h4.973a.71.71 0 0 1 .711.711" fill="url(#c)"/><path d="M2.606 9v8.526H8.29V9.71A.71.71 0 0 0 7.579 9Z" fill="url(#d)"/></g></svg>