<?xml version="1.0" encoding="utf-8"?>
<svg xmlns="http://www.w3.org/2000/svg" viewBox="120.0353 51.0566 220.1049 206.312" width="500" height="500">
  <a transform="matrix(1.0108840465545654, 0, 0, 1, -257.4682611596726, -269.59941502808647)">
    <path class="st3" d="M 482.305 526.965 C 542.428 526.965 591.174 480.777 591.174 423.809 C 591.174 366.841 542.428 320.656 482.305 320.656 C 422.182 320.656 373.439 366.844 373.439 423.812 C 373.439 480.78 422.185 526.968 482.308 526.968" style="fill: rgb(195, 19, 48); stroke-width: 1;"/>
    <path class="st2" d="M 540.268 499.6 C 539.488 499.6 538.721 499.262 538.217 498.629 C 538.118 498.503 538.034 498.371 537.963 498.236 C 537.858 498.087 537.768 497.928 537.697 497.753 L 525.908 468.889 L 438.309 468.889 L 426.182 497.773 C 425.66 499.019 424.165 499.623 422.856 499.131 C 422.395 498.958 422.015 498.667 421.739 498.315 C 397.153 480.358 383.068 453.239 383.068 423.824 C 383.068 371.969 427.593 329.783 482.32 329.783 C 537.047 329.783 581.572 371.972 581.572 423.824 C 581.572 453.705 567.076 481.147 541.803 499.11 C 541.342 499.438 540.803 499.597 540.268 499.597 L 540.268 499.6 Z M 436.573 464.034 L 527.666 464.034 C 528.724 464.034 529.674 464.649 530.054 465.588 L 541.37 493.287 C 563.71 476.248 576.452 451.11 576.452 423.827 C 576.452 374.648 534.228 334.641 482.323 334.641 C 430.418 334.641 388.195 374.648 388.195 423.827 C 388.195 450.858 400.739 475.846 422.732 492.865 L 434.193 465.567 C 434.583 464.644 435.524 464.037 436.573 464.037 L 436.573 464.034 Z" style="fill: rgb(255, 255, 255); stroke-width: 1;"/>
    <path class="st2" d="M 514.961 438.632 L 448.931 438.632 C 448.083 438.632 447.288 438.234 446.811 437.568 C 446.335 436.903 446.239 436.058 446.548 435.311 L 479.925 355.545 C 480.315 354.615 481.274 354.032 482.317 354.011 C 483.369 354.017 484.316 354.63 484.697 355.559 L 517.35 435.325 C 517.656 436.073 517.554 436.914 517.074 437.574 C 516.598 438.237 515.806 438.632 514.961 438.632 Z M 452.7 433.774 L 511.217 433.774 L 482.28 363.085 L 452.7 433.774 Z" style="fill: rgb(255, 255, 255); stroke-width: 1;"/>
  </a>
</svg>